<?xml version="1.0" encoding="utf-8"?>
<!-- Generator: Adobe Illustrator 16.0.4, SVG Export Plug-In . SVG Version: 6.00 Build 0)  -->
<!DOCTYPE svg PUBLIC "-//W3C//DTD SVG 1.1//EN" "http://www.w3.org/Graphics/SVG/1.1/DTD/svg11.dtd">
<svg version="1.1" id="Ebene_1" xmlns="http://www.w3.org/2000/svg" xmlns:xlink="http://www.w3.org/1999/xlink" x="0px" y="0px"
	 width="112.195px" height="112.195px" viewBox="0 0 112.195 112.195" enable-background="new 0 0 112.195 112.195"
	 xml:space="preserve">
<g>
	<title>background</title>
	<rect id="canvas_background" x="-1" y="-1" fill="none" width="582" height="402"/>
</g>
<g>
	<title>Layer 1</title>
	<path fill="#FFFFFF" d="M56.098-0.001C25.115-0.001,0,25.115,0,56.097s25.115,56.098,56.098,56.098s56.098-25.115,56.098-56.098
		S87.08-0.001,56.098-0.001z M60.062,71.827c-5.731,7.377-16.323,9.542-24.937,6.647c-8.574-2.816-14.952-11.088-15.553-20.064
		c-0.04-0.598-0.054-1.199-0.042-1.803c-0.042-1.118,0.011-2.229,0.152-3.322c1.367-10.575,10.961-19.64,21.781-19.77
		c6.085-0.519,12.005,1.844,16.61,5.698l0,0c0,0,0.001,0,0.001,0.001c-1.889,2.076-3.811,4.13-5.864,6.052
		c-4.054-2.463-8.936-4.34-13.673-2.673c-7.642,2.175-12.27,11.198-9.442,18.675c0.585,1.952,1.618,3.684,2.954,5.133
		c4.008,4.345,10.745,6.139,16.327,3.68c3.853-1.38,6.394-4.936,7.509-8.756c-4.417-0.09-8.834-0.033-13.25-0.155v-0.001
		c0,0,0,0-0.001,0c-0.011-2.628-0.022-5.246-0.011-7.874c7.366-0.011,14.743-0.033,22.12,0.033c0,0,0,0,0,0.001h0.001
		C65.198,59.767,64.247,66.658,60.062,71.827z M92.321,53.317c0,2.198,0,4.384,0,6.581v0.001c-2.197,0.012-4.406,0.022-6.604,0.033
		c-0.023,2.209-0.033,4.406-0.045,6.615c-2.197-0.011-4.396,0-6.582,0c-0.022-2.209-0.022-4.406-0.044-6.604
		c-2.197-0.022-4.406-0.033-6.604-0.045v-0.001c0-2.197,0-4.383,0-6.581c0,0,0,0,0-0.001c2.198-0.011,4.396-0.021,6.604-0.044
		c0.011-2.195,0.033-4.404,0.056-6.603c2.188,0,4.373,0,6.57,0c0.012,2.198,0.033,4.407,0.045,6.604
		C87.914,53.294,90.123,53.305,92.321,53.317C92.321,53.316,92.321,53.316,92.321,53.317z"/>
	<g id="svg_9">
	</g>
	<g id="svg_10">
	</g>
	<g id="svg_11">
	</g>
	<g id="svg_12">
	</g>
	<g id="svg_13">
	</g>
	<g id="svg_14">
	</g>
	<g id="svg_15">
	</g>
	<g id="svg_16">
	</g>
	<g id="svg_17">
	</g>
	<g id="svg_18">
	</g>
	<g id="svg_19">
	</g>
	<g id="svg_20">
	</g>
	<g id="svg_21">
	</g>
	<g id="svg_22">
	</g>
	<g id="svg_23">
	</g>
</g>
</svg>
